{"title":"Americas.Got.Talent.S10E04.x264-SFS.mp4","uid":12042154,"size":791542751,"categoryP":"video","categoryS":"tv_shows","magnet":"?xt=urn:btih:804a097e7ef5448a211d66502a1d43f0ec4a5822&amp;dn=Americas.Got.Talent.S10E04.x264-SFS.mp4&amp;tr=udp%3A%2F%2Ftracker.openbittorrent.com%3A80&amp;tr=udp%3A%2F%2Fopen.demonii.com%3A1337&amp;tr=udp%3A%2F%2Ftracker.coppersurfer.tk%3A6969&amp;tr=udp%3A%2F%2Fexodus.desync.com%3A6969","seeders":0,"leechers":0,"uploader":"SFS27","files":1,"time":1434761694,"description":"Screens:\n &lt;a href=&quot;\nhttp://imgthat.com/viewer.php?file=78300751173889836081.jpg&quot; rel=&quot;nofollow&quot; target=&quot;_NEW&quot;&gt;\nhttp://imgthat.com/viewer.php?file=78300751173889836081.jpg&lt;/a&gt;\n &lt;a href=&quot;\nhttp://imgthat.com/viewer.php?file=59294483857011001094.jpg&quot; rel=&quot;nofollow&quot; target=&quot;_NEW&quot;&gt;\nhttp://imgthat.com/viewer.php?file=59294483857011001094.jpg&lt;/a&gt;\n &lt;a href=&quot;\nhttp://imgthat.com/viewer.php?file=18377825333787416081.jpg&quot; rel=&quot;nofollow&quot; target=&quot;_NEW&quot;&gt;\nhttp://imgthat.com/viewer.php?file=18377825333787416081.jpg&lt;/a&gt;\n &lt;a href=&quot;\nhttp://imgthat.com/viewer.php?file=75229791162369405381.jpg&quot; rel=&quot;nofollow&quot; target=&quot;_NEW&quot;&gt;\nhttp://imgthat.com/viewer.php?file=75229791162369405381.jpg&lt;/a&gt;\n &lt;a href=&quot;\nhttp://imgthat.com/viewer.php?file=78781367294569454581.jpg&quot; rel=&quot;nofollow&quot; target=&quot;_NEW&quot;&gt;\nhttp://imgthat.com/viewer.php?file=78781367294569454581.jpg&lt;/a&gt;\n\n\n\nFormat                                   : MPEG-4\nFormat profile                           : Base Media / Version 2\nCodec ID                                 : mp42\nFile size                                : 755 MiB\nDuration                                 : 1h 25mn\nOverall bit rate                         : 1 239 Kbps\nEncoded date                             : UTC 2015-06-20 10:06:42\nTagged date                              : UTC 2015-06-20 10:06:42\n\n\nVideo\nID                                       : 1\nFormat                                   : AVC\nFormat/Info                              : Advanced Video Codec\nFormat profile                           : &lt;a class=&quot;__cf_email__&quot; href=&quot;/cdn-cgi/l/email-protection&quot; data-cfemail=&quot;bdf5d4dad5fdf189938c&quot;&gt;[email&amp;#160;protected]&lt;/a&gt;&lt;script data-cfhash='f9e31' type=&quot;text/javascript&quot;&gt;\n/* &lt;![CDATA[ */!function(){try{var t=&quot;currentScript&quot;in document?document.currentScript:function(){for(var t=document.getElementsByTagName(&quot;script&quot;),e=t.length;e--;)if(t[e].getAttribute(&quot;data-cfhash&quot;))return t[e]}();if(t&amp;&amp;t.previousSibling){var e,r,n,i,c=t.previousSibling,a=c.getAttribute(&quot;data-cfemail&quot;);if(a){for(e=&quot;&quot;,r=parseInt(a.substr(0,2),16),n=2;a.length-n;n+=2)i=parseInt(a.substr(n,2),16)^r,e+=String.fromCharCode(i);e=document.createTextNode(e),c.parentNode.replaceChild(e,c)}t.parentNode.removeChild(t);}}catch(u){}}()/* ]]&gt; */&lt;/script&gt;\nFormat settings, CABAC                   : Yes\nFormat settings, ReFrames                : 4 frames\nCodec ID                                 : avc1\nCodec ID/Info                            : Advanced Video Coding\nDuration                                 : 1h 25mn\nBit rate                                 : 1 075 Kbps\nWidth                                    : 640 pixels\nHeight                                   : 360 pixels\nDisplay aspect ratio                     : 16:9\nOriginal display aspect ratio            : 16:9\nFrame rate mode                          : Variable\nFrame rate                               : 29.970 fps\nMinimum frame rate                       : 9.990 fps\nMaximum frame rate                       : 29.970 fps\nColor space                              : YUV\nChroma subsampling                       : 4:2:0\nBit depth                                : 8 bits\nScan type                                : Progressive\nBits/(Pixel*Frame)                       : 0.156\nStream size                              : 655 MiB (87%)\nWriting library                          : x264 core 142 r2389 956c8d8\nEncoded date                             : UTC 2015-06-20 10:06:42\nTagged date                              : UTC 2015-06-20 10:06:42\nColor primaries                          : BT.709-5, BT.1361, IEC 61966-2-4, SMPTE RP177\nTransfer characteristics                 : BT.709-5, BT.1361\nMatrix coefficients                      : BT.709-5, BT.1361, IEC 61966-2-4 709, SMPTE RP177\n\nAudio\nID                                       : 2\nFormat                                   : AC-3\nFormat/Info                              : Audio Coding 3\nMode extension                           : CM (complete main)\nFormat settings, Endianness              : Big\nCodec ID                                 : ac-3\nDuration                                 : 1h 25mn\nBit rate mode                            : Constant\nBit rate                                 : 160 Kbps\nChannel(s)                               : 2 channels\nChannel positions                        : Front: L R\nSampling rate                            : 48.0 KHz\nBit depth                                : 16 bits\nCompression mode                         : Lossy\nDelay relative to video                  : -12s 12ms\nStream size                              : 97.4 MiB (13%)\nTitle                                    : Stereo\nEncoded date                             : UTC 2015-06-20 10:06:42\nTagged date                              : UTC 2015-06-20 10:06:42","torrent":{"xt":"urn:btih:804a097e7ef5448a211d66502a1d43f0ec4a5822","amp;dn":"Americas.Got.Talent.S10E04.x264-SFS.mp4","amp;tr":["udp%3A%2F%2Ftracker.openbittorrent.com%3A80","udp%3A%2F%2Fopen.demonii.com%3A1337","udp%3A%2F%2Ftracker.coppersurfer.tk%3A6969","udp%3A%2F%2Fexodus.desync.com%3A6969"],"infoHash":"804a097e7ef5448a211d66502a1d43f0ec4a5822","infoHashBuffer":{"type":"Buffer","data":[128,74,9,126,126,245,68,138,33,29,102,80,42,29,67,240,236,74,88,34]},"announce":[],"urlList":[]}}